<svg id="a06ec189-63df-43b9-8230-2093488766b3" data-name="Layer 1" xmlns="http://www.w3.org/2000/svg" viewBox="0 0 1939.42052 705.56945">
  <defs>
    <style>
      .b4b99170-93e6-4038-b579-9ad3f5bda16e {
        fill: #bb2026;
      }

      .f9f8d2e8-c400-41cc-b949-f291823c7e32 {
        fill: #585858;
      }

      .f2655b8f-7447-4e69-b0b3-13e9776e7811 {
        fill: #6a6a6a;
      }
    </style>
  </defs>
  <path class="b4b99170-93e6-4038-b579-9ad3f5bda16e" d="M823.66488,1216.649a24.79765,24.79765,0,0,1,3.67188-.72013c37.22857-.92589,73.19133-9.19936,108.89633-18.85921,53.48932-14.47132,105.91591-32.31028,158.30863-50.246,52.221-17.87688,104.57816-35.32085,157.99352-49.36928a1041.63115,1041.63115,0,0,1,119.42353-24.33452c35.50579-5.0113,71.15042-8.44,106.96456-10.0676,17.90119-.81353,35.8095-1.685,53.72334-1.96164,40.41308-.6242,79.91325,5.94015,118.8633,16.16245,58.377,15.32085,113.65812,38.53055,167.17016,66.15826a946.81419,946.81419,0,0,1,91.2559,53.42557,14.09641,14.09641,0,0,0,7.80659,2.44505c17.16851.496,34.34715.849,51.49685,1.73986q45.85179,2.38179,91.67158,5.36879c20.85494,1.36459,41.68527,3.13324,62.51177,4.89611,88.08415,7.45584,172.87779,28.00041,253.74472,64.05168,3.84725,1.71528,8.02464,3.12669,10.39246,7.20383-1.23054,3.37729-4.1112,2.86794-6.58022,2.90712-12.13447.1929-24.27073.402-36.406.39085-24.83226-.0227-49.66465-.211-74.49691-.25163a18.47662,18.47662,0,0,1-9.03009-2.36823c-18.56535-9.9947-38.61657-15.81427-59.06165-20.30623-24.4518-5.37224-49.25-8.39738-74.18879-10.53531-35.22841-3.02008-70.52739-1.95549-105.8-2.31332-46.30233-.46972-92.61171-.39888-138.91028-1.08431-29.67641-.43933-59.34092-1.76434-89.00686-2.80311-22.20221-.7774-44.40995-1.50693-66.59418-2.6625q-44.17337-2.301-88.311-5.27428c-19.17611-1.27974-38.31783-3.0753-57.47424-4.64821-.73665-.06048-1.46611-.20815-2.642-.37981v-11.94243h253.385c-.65158-1.91871-.74656-3.27507-1.46125-4.08361a34.06838,34.06838,0,0,0-5.303-4.95458c-30.57675-22.38779-61.33586-44.49419-94.42046-63.14915a604.01015,604.01015,0,0,0-104.07259-46.46087c-12.10282-4.07643-24.696-5.71423-37.342-6.85783a542.33522,542.33522,0,0,0-85.04814-.89908c-19.71583,1.31663-39.36587,3.79779-58.99738,6.1574-32.23664,3.87474-64.18818,9.56692-96.0142,15.94337-54.69476,10.95826-108.86166,24.07106-162.27883,40.1902a36.73,36.73,0,0,0-8.70885,3.67518c-5.19462,3.21585-5.98617,8.0574-2.14907,12.83508,4.20611,5.23709,8.72139,10.2263,13.11393,15.31313q14.277,16.53335,28.55459,33.06607c1.77658,2.06493,3.763,4.07413,4.04819,7.90925a51.795,51.795,0,0,1-6.68945-.38165c-19.41222-3.70722-38.75949-7.77551-58.22063-11.199-19.13382-3.36587-38.43661-5.44424-57.92387-4.96856-22.30656.54446-44.15484,4.38833-65.78959,9.51495-21.22624,5.02983-42.34736,10.50474-63.584,15.48869a231.55953,231.55953,0,0,1-66.11994,6.11784c-23.15646-1.30073-45.42657-6.28386-65.9343-17.61448C833.09468,1224.14667,828.10622,1221.28581,823.66488,1216.649Z" transform="translate(-448.13948 -1061.04969)"/>
  <path class="f9f8d2e8-c400-41cc-b949-f291823c7e32" d="M2108.70825,1534.82506c-4.82288-2.32662-9.59187-4.62724-14.49961-6.99478v-1.47394c0-3.41865-.04231-6.83816.02608-10.25542a2.1892,2.1892,0,0,0-1.12962-2.11132c-1.69566-1.131-3.29351-2.40788-4.97131-3.56725a4.086,4.086,0,0,0-1.517-.53809,7.21513,7.21513,0,0,0-1.37413-.01846q-72.6337,0-145.2674-.00964a72.11832,72.11832,0,0,1-72.31164-72.2322q.00264-79.44547.001-158.891v-1.62512c1.2164-.333,42.89843-.42286,45.058-.09709v2.05139q0,77.99129-.00341,155.98256a28.51327,28.51327,0,0,0,1.76913,10.95538c4.36606,10.66265,12.24314,16.77,23.76,18.027,1.31466.14349,2.64745.15128,3.97238.16356,2.602.02412,5.20446.00532,7.80672.00738q68.49721.05418,136.99442.10914c.50815.00041,1.0163.00006,1.5443.00006,11.58825,18.49995,27.7524,30.70364,49.1686,35.35777a73.35244,73.35244,0,0,0,49.44094-6.06689,75.52567,75.52567,0,0,0-34.92453-143.24873,74.38831,74.38831,0,0,0-35.62967,9.68509,75.6126,75.6126,0,0,0-38.29312,60.64269h-31.46016c.08657-1.46893.12793-2.924.26568-4.36984a100.6813,100.6813,0,0,1,2.25921-14.18208,1.64376,1.64376,0,0,0-.59579-1.86092c-2.42967-2.10411-4.80641-4.26916-7.22284-6.3887a1.25724,1.25724,0,0,1-.49094-1.56841c1.86759-5.33812,3.68773-10.69284,5.52657-16.04105a2.7389,2.7389,0,0,1,.26538-.4042h12.03965l7.59557-12.29008q-2.78075-4.655-5.78859-9.69016c3.97834-4.64387,7.94931-9.27914,11.98508-13.99.56329.18,1.09182.333,1.60933.51684,3.07284,1.09179,6.15378,2.16231,9.20715,3.30627a1.85124,1.85124,0,0,0,2.06922-.32493q3.78344-2.9831,7.699-5.79656a2.02326,2.02326,0,0,0,.93216-1.8991c-.038-3.26514-.00252-6.53107-.02579-9.79649a1.485,1.485,0,0,1,.77859-1.49583c4.14038-2.415,8.25969-4.8661,12.388-7.3019a2.11173,2.11173,0,0,1,.40378-.11436c.26872.1727.61685.36788.93392.60467,2.861,2.13654,5.73389,4.258,8.56245,6.43691a2.27573,2.27573,0,0,0,2.36351.41676c2.95908-.94222,5.95368-1.78076,8.9592-2.5648a2.2786,2.2786,0,0,0,1.76587-1.62014c1.24428-3.39681,2.6157-6.747,3.8608-10.14355a1.77083,1.77083,0,0,1,1.85906-1.3677c4.48281-.214,8.96013-.54182,13.43981-.82274.354-.0222.71073-.00293,1.17334-.00293.21747.32294.488.6816.71361,1.06658,1.72755,2.94751,3.4684,5.88762,5.15236,8.86a1.93155,1.93155,0,0,0,1.77927,1.11642q4.50158.28895,8.98757.80084a2.46344,2.46344,0,0,0,2.36874-.94206c2.63842-2.979,5.36867-5.87686,7.99379-8.8672a1.958,1.958,0,0,1,2.49488-.62786c4.03679,1.42037,8.11417,2.72554,12.17447,4.07935.42948.14321.847.32224,1.38723.52959.31875,4.31166.63753,8.62331.95019,12.85224l13.48512,6.73307c3.07654-2.14786,6.28729-4.3894,9.53918-6.65966,4.02031,3.01365,7.97545,5.97838,12.01239,9.00449-.32115,2.32069-.635,4.634-.96324,6.94524-.2365,1.6652-.47493,3.3305-.7476,4.99a1.76132,1.76132,0,0,0,.57307,1.62131c2.64418,2.8337,5.28664,5.67141,7.83533,8.59013a1.901,1.901,0,0,0,2.03232.58336q5.3628-.83811,10.72467-1.68236a4.49209,4.49209,0,0,1,.57147-.00293q3.936,6.38814,7.95163,12.90567c-.24905.3906-.47388.78-.73355,1.14463-1.86429,2.61755-3.69815,5.25807-5.62523,7.82868a2.28039,2.28039,0,0,0-.3,2.61194q2.23326,5.27476,4.19241,10.66354a2.54967,2.54967,0,0,0,1.97058,1.79679c3.19781.85891,6.3729,1.80257,9.55585,2.71657.2887.08293.57067.18911.9416.31316.30739,2.17191.62109,4.3323.91712,6.4951.32484,2.37377.60577,4.75391.96253,7.12275a2.01491,2.01491,0,0,1-.89377,2.20075c-2.4307,1.77329-4.769,3.67273-7.18292,5.46984a2.128,2.128,0,0,0-.95262,2.03348q.15634,5.35128.0494,10.70855a2.081,2.081,0,0,0,.98316,2.00746c2.41987,1.70146,4.77617,3.49349,7.19765,5.19257a1.64813,1.64813,0,0,1,.83157,1.76709c-.64994,4.95017-1.25859,9.90576-1.891,14.93821-.84724.28181-1.65818.56493-2.47746.82162-2.81994.8836-5.63406,1.78756-8.46988,2.61723a2.09777,2.09777,0,0,0-1.55055,1.45676c-1.1603,3.15475-2.36415,6.29544-3.6492,9.40106a2.1502,2.1502,0,0,0,.22782,2.2422c1.97746,3.09184,3.90307,6.2168,5.93,9.46124q-4.47366,6.961-9.012,14.02248c-2.46389-.346-4.87935-.68624-7.29515-1.024-1.262-.17646-2.52634-.33682-3.786-.52826a1.20035,1.20035,0,0,0-1.20852.4247c-2.847,3.19791-5.71814,6.37423-8.716,9.70625.96175,3.63153,1.97581,7.46041,3.01933,11.40067l-13.01692,10.01336c-2.0599-1.23007-4.06976-2.43-6.0792-3.63036-1.22574-.73224-2.46576-1.44213-3.66964-2.20875a1.37207,1.37207,0,0,0-1.54749-.02538c-3.45277,1.753-6.91369,3.49194-10.40929,5.15707a1.83334,1.83334,0,0,0-1.04818,1.52973q-.95514,4.79784-1.9054,9.59655c-.09893.49518-.23291.98338-.37593,1.58011-4.96161,1.32515-9.92027,2.64948-14.95726,3.99474-1.02543-1.32078-2.02443-2.60191-3.01724-3.88782-1.18467-1.53444-2.38339-3.05868-3.53529-4.61748a1.50133,1.50133,0,0,0-1.53743-.69308c-3.852.41058-7.70905.77489-11.564,1.15866a4.92765,4.92765,0,0,0-.52976.12012q-2.86824,5.3928-5.80025,10.90556c-2.91429-.33112-5.746-.64793-8.5765-.97606-2.32853-.27-4.65116-.6026-6.98515-.80833a2.01477,2.01477,0,0,1-2.00462-1.46728c-1.156-3.10319-2.4587-6.15144-3.64958-9.24211a2.03893,2.03893,0,0,0-1.59064-1.3984c-3.15387-.82145-6.2929-1.71047-9.40151-2.68851a2.02,2.02,0,0,0-2.2.42269c-2.59859,2.2203-5.23845,4.39227-7.86471,6.58013C2109.27858,1534.40791,2109.07034,1534.55183,2108.70825,1534.82506Z" transform="translate(-448.13948 -1061.04969)"/>
  <path class="f9f8d2e8-c400-41cc-b949-f291823c7e32" d="M2094.73748,1425.81812a59.003,59.003,0,1,1,58.91456,59.04382A59.02812,59.02812,0,0,1,2094.73748,1425.81812ZM2153.832,1396.309a29.5469,29.5469,0,1,0,29.45135,29.68912A29.534,29.534,0,0,0,2153.832,1396.309Z" transform="translate(-448.13948 -1061.04969)"/>
  <g>
    <path class="f9f8d2e8-c400-41cc-b949-f291823c7e32" d="M1580.80469,1510.335h-33.98438q-5.46972,23.23976-17.87109,38.67188A86.35716,86.35716,0,0,1,1499.75,1572.7373a98.36492,98.36492,0,0,1-36.71875,9.76563,128.2589,128.2589,0,0,1-40.42969-3.61328v-45.70313a88.383,88.383,0,0,0,23.04688,6.05469,70.23424,70.23424,0,0,0,23.4375-.78125,47.30665,47.30665,0,0,0,19.72656-9.082q8.59278-6.73829,12.10938-19.043a87.37467,87.37467,0,0,1-17.08985,1.17188,97.42739,97.42739,0,0,1-19.43359-2.44141,89.54623,89.54623,0,0,1-19.4336-6.83594,59.25745,59.25745,0,0,1-16.99218-12.40234,58.05589,58.05589,0,0,1-12.01221-19.14063q-4.49561-11.3247-4.49219-26.75781v-39.84424a68.7171,68.7171,0,0,1,5.56641-27.53906,71.278,71.278,0,0,1,37.89111-37.793,69.412,69.412,0,0,1,27.63672-5.5664,68.71705,68.71705,0,0,1,27.53906,5.5664,71.85853,71.85853,0,0,1,22.5586,15.23438,73.30337,73.30337,0,0,1,15.332,22.55859,67.70812,67.70812,0,0,1,5.66406,27.53906v26.95362q0,10.355-.09766,16.79687-.10254,6.44532-.19531,10.05859-.10254,3.61671-.293,6.73829h27.73438ZM1457.36719,1405.061v33.78955a26.63784,26.63784,0,0,0,2.14844,11.03515,25.13933,25.13933,0,0,0,5.66406,8.10547,25.95079,25.95079,0,0,0,8.00781,5.17578,27.10531,27.10531,0,0,0,9.375,2.05078h25.39063V1405.061a30.99244,30.99244,0,0,0-2.14844-12.10938,23.88628,23.88628,0,0,0-5.76172-8.39844,21.85354,21.85354,0,0,0-8.20313-4.78515,26.70225,26.70225,0,0,0-9.27734-1.26953,27.26214,27.26214,0,0,0-9.375,2.05078,25.225,25.225,0,0,0-8.00781,5.27343,26.3705,26.3705,0,0,0-5.66406,8.20313A26.65865,26.65865,0,0,0,1457.36719,1405.061Z" transform="translate(-448.13948 -1061.04969)"/>
    <path class="f9f8d2e8-c400-41cc-b949-f291823c7e32" d="M1676.89844,1464.63184V1510.335h-96.48438v-45.70312Z" transform="translate(-448.13948 -1061.04969)"/>
    <path class="f9f8d2e8-c400-41cc-b949-f291823c7e32" d="M1676.50781,1464.63184a46.27151,46.27151,0,0,0,11.91407-1.07422,23.988,23.988,0,0,0,9.47265-4.39453,21.073,21.073,0,0,0,6.25-8.10547,29.67714,29.67714,0,0,0,2.2461-12.207v-34.76612a68.71709,68.71709,0,0,1,5.5664-27.53906,71.275,71.275,0,0,1,37.89063-37.793,69.41193,69.41193,0,0,1,27.63672-5.5664,68.71709,68.71709,0,0,1,27.53906,5.5664,71.85837,71.85837,0,0,1,22.55859,15.23438,73.3032,73.3032,0,0,1,15.332,22.55859,67.70813,67.70813,0,0,1,5.66407,27.53906v35.352a68.39139,68.39139,0,0,1-5.66407,27.63672,72.52172,72.52172,0,0,1-37.89062,37.98828,67.65987,67.65987,0,0,1-27.53906,5.66407,69.11388,69.11388,0,0,1-26.46485-5.07813,71.14387,71.14387,0,0,1-21.97265-14.0625q-11.52833,10.94093-24.31641,14.74609a103.20024,103.20024,0,0,1-28.22266,4.00391Zm75.58594-59.5708v33.78955a26.63784,26.63784,0,0,0,2.14844,11.03515,24.37055,24.37055,0,0,0,5.76172,8.10547,26.87609,26.87609,0,0,0,8.20312,5.17578,27.56,27.56,0,0,0,9.27735,2.05078,26.63351,26.63351,0,0,0,9.27734-1.26953,22.50121,22.50121,0,0,0,8.20312-4.6875,22.85948,22.85948,0,0,0,5.76172-8.30078,30.98219,30.98219,0,0,0,2.14844-12.10937V1405.061a30.99244,30.99244,0,0,0-2.14844-12.10938,23.886,23.886,0,0,0-5.76172-8.39844,21.8535,21.8535,0,0,0-8.20312-4.78515,26.70229,26.70229,0,0,0-9.27734-1.26953,27.72569,27.72569,0,0,0-9.27735,2.05078,26.104,26.104,0,0,0-8.20312,5.27343,25.526,25.526,0,0,0-5.76172,8.20313A26.65865,26.65865,0,0,0,1752.09375,1405.061Z" transform="translate(-448.13948 -1061.04969)"/>
  </g>
  <path class="f9f8d2e8-c400-41cc-b949-f291823c7e32" d="M1294.45166,1342.79011v-34.45736a115.45431,115.45431,0,0,1,31.914,10.03838,117.777,117.777,0,0,1,47.111,40.71269,115.9381,115.9381,0,0,1,19.88142,57.03441,118.57966,118.57966,0,1,1-236.79028,10.74077c-.71184-63.45125,47.23214-110.93219,99.21528-118.42653v34.318c-25.22078,6.58755-44.22571,21.12718-56.18539,44.34674-9.20039,17.86244-11.43837,36.82791-7.18608,56.4297a84.684,84.684,0,0,0,165.90044-2.32463c4.13021-22.19775.159-43.01577-12.177-61.96976C1333.80778,1360.29188,1316.38328,1348.31573,1294.45166,1342.79011Z" transform="translate(-448.13948 -1061.04969)"/>
  <path class="f9f8d2e8-c400-41cc-b949-f291823c7e32" d="M1212.91713,1421.29569h25.73257l-.30091,8.08046c-2.74818.00629-5.57125.002-8.39422.0028q-4.2101.00111-8.42018.00016h-8.60261a60.44031,60.44031,0,0,0,2.78084,14.85656,62.08713,62.08713,0,0,0,12.5932,22.24678l17.48091-17.484c1.8395,1.93951,3.6467,3.84495,5.55006,5.85177-.01755-.14423-.01026-.11587-.01181-.088a.23219.23219,0,0,1-.01979.07809.27177.27177,0,0,1-.04478.07162c-.05664.06336-.11417.12612-.17421.18626q-8.47,8.48835-16.93981,16.97691a1.20235,1.20235,0,0,0-.09169.17118,62.3492,62.3492,0,0,0,37.02533,15.33354V1463.332h8.08758v24.22688a61.00316,61.00316,0,0,0,16.89442-3.44015c7.26771-2.57833,17.3619-8.57515,20.26895-12.03367l-17.27544-17.27458,5.57177-5.88831q8.6628,8.66269,17.50163,17.50142a62.50132,62.50132,0,0,0,15.331-37.03281c-2.89324-.02409-5.71669-.00809-8.53977-.011q-4.2101-.00435-8.42018-.00064h-8.50045c-.10071-2.70422-.1991-5.34593-.30056-8.07047h25.72682a59.37929,59.37929,0,0,0-2.60578-14.38953,61.87757,61.87757,0,0,0-12.74438-22.76125q-9.39374,9.39011-18.692,18.68483l-5.84351-5.5463,18.85089-18.83276a62.53114,62.53114,0,0,0-21.82818-12.49249v-9.34506a68.26884,68.26884,0,0,1,15.57608,6.45767,70.97053,70.97053,0,0,1,26.05288,25.20286A69.91165,69.91165,0,0,1,1346.431,1421.386a71.35453,71.35453,0,0,1-141.98665,13.268c-5.00512-39.23834,21.48138-70.14835,51.44748-77.99251v9.27459a62.60529,62.60529,0,0,0-21.817,12.43329l18.83754,18.838-5.8735,5.55247-18.67784-18.67758a61.09875,61.09875,0,0,0-9.16891,13.66107A61.92676,61.92676,0,0,0,1212.91713,1421.29569Z" transform="translate(-448.13948 -1061.04969)"/>
  <path class="f9f8d2e8-c400-41cc-b949-f291823c7e32" d="M1253.51705,1425.29565a21.61548,21.61548,0,1,1,21.50606,21.655A21.597,21.597,0,0,1,1253.51705,1425.29565Z" transform="translate(-448.13948 -1061.04969)"/>
  <g>
    <path class="f9f8d2e8-c400-41cc-b949-f291823c7e32" d="M804.94971,1277.86035h45.70312v160.9375a26.65356,26.65356,0,0,0,2.14844,11.03516,23.34022,23.34022,0,0,0,5.76172,8.00781,26.37275,26.37275,0,0,0,8.20312,4.98047,25.74855,25.74855,0,0,0,9.27735,1.75781v45.70313a69.41022,69.41022,0,0,1-27.63672-5.56641,72.35173,72.35173,0,0,1-22.65625-15.13672,70.35369,70.35369,0,0,1-15.23438-22.55859,69.41218,69.41218,0,0,1-5.5664-27.63672Z" transform="translate(-448.13948 -1061.04969)"/>
    <path class="f9f8d2e8-c400-41cc-b949-f291823c7e32" d="M895.96533,1534.69629,923.30908,1562.04l27.34375-27.34375,32.8125,32.61719-32.8125,32.8125-27.34375-27.14844L895.96533,1600.126l-32.8125-32.8125Zm81.44531-95.3125a68.71709,68.71709,0,0,1-5.5664,27.53906,72.74053,72.74053,0,0,1-15.13672,22.5586,70.42852,70.42852,0,0,1-22.55859,15.23437,69.42231,69.42231,0,0,1-27.63672,5.56641H875.65283V1464.5791h30.85938a25.00049,25.00049,0,0,0,9.17968-1.75781,26.74586,26.74586,0,0,0,8.10547-4.98047,23.4303,23.4303,0,0,0,5.76172-8.00781,26.7084,26.7084,0,0,0,2.14844-11.03516v-74.60937h45.70312Z" transform="translate(-448.13948 -1061.04969)"/>
    <path class="f9f8d2e8-c400-41cc-b949-f291823c7e32" d="M1057.12451,1346.21973q10.54688,8.59716,21.48438,19.23828a192.74372,192.74372,0,0,1,19.92187,22.65625,130.57682,130.57682,0,0,1,14.7461,24.90234,66.06056,66.06056,0,0,1,5.957,26.17188,67.13154,67.13154,0,0,1-5.3711,27.63672,70.748,70.748,0,0,1-15.332,22.65625,72.47763,72.47763,0,0,1-22.85156,15.23437,70.12,70.12,0,0,1-27.73438,5.56641h-51.5625V1464.5791h50.78125a30.93912,30.93912,0,0,0,12.10938-2.14844,22.80626,22.80626,0,0,0,8.30078-5.76171,23.67726,23.67726,0,0,0,4.78516-8.20313,25.361,25.361,0,0,0,1.36718-9.27734q-.394-6.44532-4.78515-13.67188a94.52783,94.52783,0,0,0-11.32813-14.74609,203.33551,203.33551,0,0,0-15.52734-15.03906q-8.59717-7.51612-16.99219-14.35547Z" transform="translate(-448.13948 -1061.04969)"/>
  </g>
  <path class="f9f8d2e8-c400-41cc-b949-f291823c7e32" d="M593.19051,1415.30514c2.12135-2.65222,3.91376-5.015,5.832-7.27089,9.70387-11.41191,19.46412-22.776,29.13647-34.21438a5.23452,5.23452,0,0,1,4.48112-1.99844c27.913.06239,55.82635-.00759,83.73928.07505a69.41136,69.41136,0,0,1,33.1614,7.95709c14.66291,7.86336,24.92656,19.55508,30.40226,35.25839,6.98668,20.03686,6.19779,39.85243-3.42,58.81662-9.95979,19.63848-26.38429,30.94338-48.01862,34.55718a92.18168,92.18168,0,0,1-15.0103,1.11q-86.81793.11106-173.63611.07712a23.19912,23.19912,0,0,1-9.86493-1.92914c-10.2535-4.68463-20.69255-9.00684-30.71882-14.1359-20.75-10.61491-36.00424-26.54172-44.84254-48.31973-4.58359-11.29412-6.22319-23.11074-6.28674-35.20968-.01124-2.13859-.0016-4.27722-.0016-6.62316h45.81234c0,2.13555.01582,4.25012-.003,6.3644a46.67163,46.67163,0,0,0,2.91694,17.18557c3.808,10.00128,10.42667,17.81645,19.06085,23.9693a74.37148,74.37148,0,0,0,30.77517,12.567,23.20672,23.20672,0,0,0,3.9855.23934q80.96866.01652,161.93732-.02293a44.48678,44.48678,0,0,0,9.47142-.78712c9.06729-1.99735,15.4176-7.36646,17.49373-16.56618,2.13111-9.44327-1.00808-17.39191-8.53938-23.50052a22.47443,22.47443,0,0,0-12.98855-5.02476c-1.94418-.12576-3.89132-.29226-5.83715-.29331q-49.41246-.027-98.82486.01421c-5.96387.01022-11.90065.03924-17.72148-1.48291C594.99694,1415.93812,594.33235,1415.68018,593.19051,1415.30514Z" transform="translate(-448.13948 -1061.04969)"/>
  <path class="f9f8d2e8-c400-41cc-b949-f291823c7e32" d="M667.24206,1225.7185c4.1379,6.26753,8.09357,12.259,12.20766,18.49054-35.57957,24.27966-70.95194,48.41789-106.88913,72.94157-.02957-1.99221-.16165-3.3676-.05284-4.72372,1.0651-13.27149,7.22805-23.99925,17.13367-32.4903a227.66128,227.66128,0,0,1,18.82391-14.03217c18.90064-13.07682,37.90776-25.99985,56.8752-38.98014C665.8447,1226.57927,666.37234,1226.26852,667.24206,1225.7185Z" transform="translate(-448.13948 -1061.04969)"/>
  <path class="b4b99170-93e6-4038-b579-9ad3f5bda16e" d="M564.64933,1344.20629c.37547-.28758.67368-.49582.94969-.73021A878.05705,878.05705,0,0,1,670.72465,1267.419c21.63009-13.45136,43.71057-26.11045,66.46923-37.56486a235.41806,235.41806,0,0,1,21.42033-9.80858,106.12461,106.12461,0,0,1,20.67845-5.67693,73.67889,73.67889,0,0,1,15.59074-1.00624,31.86979,31.86979,0,0,1,8.776,1.41834,10.30605,10.30605,0,0,1,1.8915.83753,6.31059,6.31059,0,0,1,1.04906,1.00268c-.26162.195-.38052.3001-.51411.38077-4.49844,2.71564-8.9818,5.45682-13.50241,8.13506-4.94151,2.92761-9.91448,5.80224-14.87935,8.69033a602.23041,602.23041,0,0,0-64.23864,43.29623,735.04519,735.04519,0,0,0-82.25868,74.134,868.858,868.858,0,0,0-65.64121,77.07321c-6.942,9.16441-13.7313,18.44449-20.59269,27.67-.37663.5064-.77459.99691-1.31785,1.694-.4097-1.89269-.76267-3.50835-1.109-5.12544a364.15411,364.15411,0,0,0-13.14661-45.88852,460.44611,460.44611,0,0,0-38.17041-80.75984c-5.70516-9.60779-11.71873-19.01656-18.28061-28.06593a1.67054,1.67054,0,0,1-.22941-1.7897,7.91328,7.91328,0,0,1,7.27942-5.42759,23.72988,23.72988,0,0,1,9.69191,1.596,88.59365,88.59365,0,0,1,16.43727,8.02127,260.18157,260.18157,0,0,1,27.0287,18.71055c9.21444,7.21072,18.27,14.62444,27.39486,21.94964C561.88548,1341.986,563.21928,1343.05773,564.64933,1344.20629Z" transform="translate(-448.13948 -1061.04969)"/>
  <g>
    <path class="f2655b8f-7447-4e69-b0b3-13e9776e7811" d="M462.71191,1735.3623V1760.75a5.43949,5.43949,0,0,1-1.85791,4.16309,6.43451,6.43451,0,0,1-4.51171,1.70605,6.70773,6.70773,0,0,1-4.5879-1.70605,5.34669,5.34669,0,0,1-1.93359-4.16309v-81.75977a5.25246,5.25246,0,0,1,1.896-4.02636,6.66755,6.66755,0,0,1,4.62549-1.70606,6.4757,6.4757,0,0,1,4.47412,1.70606,5.25837,5.25837,0,0,1,1.8955,4.02636v3.68555q9.2505-9.28125,18.27491-9.28223h2.95752a19.59767,19.59767,0,0,1,12.436,4.50489l10.61621,8.25781a16.87382,16.87382,0,0,1,6.97656,13.85449v17.87989q0,8.46385-7.50732,14.26367l-10.38867,8.05371q-5.15772,4.23046-13.043,4.23144h-2.80566a18.14313,18.14313,0,0,1-12.58741-4.64062Zm17.97168-2.52539h3.26075a8.21289,8.21289,0,0,0,5.00488-2.11523l9.93359-7.84863a5.6275,5.6275,0,0,0,2.50244-4.84571v-18.49511a6.04333,6.04333,0,0,0-2.80566-4.84473l-10.69189-8.25879a6.24947,6.24947,0,0,0-3.94336-1.43262h-3.71582q-2.12329,0-5.53516,3.13965l-9.479,8.46192a6.68713,6.68713,0,0,0-2.50245,5.05078v14.67285q0,2.66161,2.80567,5.18652l9.17578,8.25782Q478.105,1732.83741,480.68359,1732.83691Z" transform="translate(-448.13948 -1061.04969)"/>
    <path class="f2655b8f-7447-4e69-b0b3-13e9776e7811" d="M764.7832,1696.73438v24.22753q0,7.71387-8.07617,14.26368-8.07569,6.55224-16.64453,6.55175H725.124q-8.72094,0-16.68261-6.65429-7.96217-6.65332-7.96241-14.16114v-24.22753q0-7.50587,7.77295-14.16114,7.77174-6.65478,16.87207-6.65429H740.0625q8.5686-.13623,16.64453,6.415Q764.78345,1688.88624,764.7832,1696.73438Zm-51.41259.47753V1720.416a5.867,5.867,0,0,0,2.50195,4.98242l4.77734,3.68554a7.18113,7.18113,0,0,0,4.47412,1.22852h14.78662a9.25621,9.25621,0,0,0,5.915-2.11621l3.86719-3.07129a5.26067,5.26067,0,0,0,2.35059-4.57227v-23.2041a5.73417,5.73417,0,0,0-2.35059-5.0498l-4.47363-3.208a8.60978,8.60978,0,0,0-5.3086-1.70605H726.71631a10.59736,10.59736,0,0,0-6.67285,1.84277l-4.32227,3.34375A5.54656,5.54656,0,0,0,713.37061,1697.21191Z" transform="translate(-448.13948 -1061.04969)"/>
    <path class="f2655b8f-7447-4e69-b0b3-13e9776e7811" d="M1015.59326,1696.73438v24.22753q0,7.71387-8.07617,14.26368-8.07569,6.55224-16.64453,6.55175H975.93408q-8.72094,0-16.68262-6.65429-7.96215-6.65332-7.9624-14.16114v-24.22753q0-7.50587,7.773-14.16114,7.77172-6.65478,16.87207-6.65429h14.93848q8.5686-.13623,16.64453,6.415Q1015.59351,1688.88624,1015.59326,1696.73438Zm-51.4126.47753V1720.416a5.867,5.867,0,0,0,2.502,4.98242L971.46,1729.084a7.18111,7.18111,0,0,0,4.47412,1.22852H990.7207a9.25621,9.25621,0,0,0,5.915-2.11621l3.86719-3.07129a5.26067,5.26067,0,0,0,2.35059-4.57227v-23.2041a5.73417,5.73417,0,0,0-2.35059-5.0498l-4.47363-3.208a8.60978,8.60978,0,0,0-5.3086-1.70605H977.52637a10.59736,10.59736,0,0,0-6.67285,1.84277l-4.32227,3.34375A5.54656,5.54656,0,0,0,964.18066,1697.21191Z" transform="translate(-448.13948 -1061.04969)"/>
    <path class="f2655b8f-7447-4e69-b0b3-13e9776e7811" d="M1253.51221,1684.041v-27.09473a5.3121,5.3121,0,0,1,1.81982-4.06055,6.271,6.271,0,0,1,4.398-1.67187,6.78819,6.78819,0,0,1,4.58789,1.67187,5.18068,5.18068,0,0,1,1.93359,4.06055v79.23535a5.22054,5.22054,0,0,1-1.8955,4.06055,6.54332,6.54332,0,0,1-4.47412,1.67187,6.4666,6.4666,0,0,1-4.54981-1.67187,5.30917,5.30917,0,0,1-1.81982-4.06055v-2.52539q-9.32739,8.25879-17.44092,8.25781h-10.84375q-6.52222,0-13.043-5.0498l-5.30811-4.02735a14.8736,14.8736,0,0,1-3.45019-5.25488,17.10421,17.10421,0,0,1-1.63037-6.89258v-23.34082a16.71664,16.71664,0,0,1,1.81982-7.541,15.315,15.315,0,0,1,4.24658-5.49414l5.23243-4.02637a20.85788,20.85788,0,0,1,13.19433-4.36816h9.1753a21.70667,21.70667,0,0,1,13.64941,4.77734Zm-18.50244,3.48046h-8.87207a7.86965,7.86965,0,0,0-5.08057,1.84278l-4.09522,3.207a5.35865,5.35865,0,0,0-2.123,4.36816v24.2959a5.41534,5.41534,0,0,0,2.50244,4.29981l4.17041,3.207a6.59071,6.59071,0,0,0,4.1709,1.57031h10.38867a8.5935,8.5935,0,0,0,4.853-2.11621l10.08545-7.50684a6.03681,6.03681,0,0,0,2.50244-4.91406v-12.4209q0-4.16161-2.6543-6.14258l-10.38867-7.98437A8.25767,8.25767,0,0,0,1235.00977,1687.52148Z" transform="translate(-448.13948 -1061.04969)"/>
    <path class="f2655b8f-7447-4e69-b0b3-13e9776e7811" d="M1504.47363,1741.77734h-38.82422a6.49776,6.49776,0,0,1-4.51171-1.67187,5.328,5.328,0,0,1,0-8.08692,6.42868,6.42868,0,0,1,4.51171-1.70605h13.042v-42.791h-12.89063a6.426,6.426,0,0,1-4.51172-1.70605,5.29461,5.29461,0,0,1-1.8584-4.02734,5.47112,5.47112,0,0,1,1.8584-4.12891,6.35645,6.35645,0,0,1,4.51172-1.74023h19.41211a6.36373,6.36373,0,0,1,4.5127,1.74023,5.477,5.477,0,0,1,1.85742,4.12891v48.52441h12.73926a6.78733,6.78733,0,0,1,4.58789,1.67188,5.26337,5.26337,0,0,1,.03808,8.12109A6.54454,6.54454,0,0,1,1504.47363,1741.77734ZM1478.54,1646.16309h6.67285a6.50775,6.50775,0,0,1,4.5127,1.67285,5.26772,5.26772,0,0,1,1.85742,4.06054v4.91309a5.474,5.474,0,0,1-1.85742,4.12891,6.36461,6.36461,0,0,1-4.5127,1.74121h-6.82422a6.38029,6.38029,0,0,1-4.58789-1.77539,5.10274,5.10274,0,0,1-1.78223-3.958l.15235-5.04981a5.26129,5.26129,0,0,1,1.85742-4.06054A6.50191,6.50191,0,0,1,1478.54,1646.16309Z" transform="translate(-448.13948 -1061.04969)"/>
    <path class="f2655b8f-7447-4e69-b0b3-13e9776e7811" d="M1734.01074,1689.36426l-17.40039,10.168v36.64941a5.25542,5.25542,0,0,1-1.89551,4.02637,6.71972,6.71972,0,0,1-8.94824,0,5.249,5.249,0,0,1-1.89551-4.02637v-54.39355a5.47012,5.47012,0,0,1,1.85743-4.12891,6.67056,6.67056,0,0,1,8.98632,0,5.429,5.429,0,0,1,1.89551,4.12891v3.82226l11.626-6.34668a26.1298,26.1298,0,0,1,13.21191-3.34472h5.92285a19.31262,19.31262,0,0,1,13.13672,4.8457,16.234,16.234,0,0,1,5.84668,11.94336l1.74414,43.47363a5.01984,5.01984,0,0,1-1.81933,4.02637,6.56815,6.56815,0,0,1-4.54981,1.70605,6.78178,6.78178,0,0,1-4.39844-1.53515,5.31639,5.31639,0,0,1-1.97167-4.19727l-1.89551-42.791q-.22706-6.0044-6.99024-6.00586h-6.23144A12.36868,12.36868,0,0,0,1734.01074,1689.36426Z" transform="translate(-448.13948 -1061.04969)"/>
    <path class="f2655b8f-7447-4e69-b0b3-13e9776e7811" d="M2018.834,1697.62207v13.85352a5.25521,5.25521,0,0,1-1.89648,4.02734,6.46828,6.46828,0,0,1-4.47363,1.70605h-45.043v3.34375a6.02046,6.02046,0,0,0,2.80566,4.98243l3.71582,2.79785a10.17852,10.17852,0,0,0,5.7627,2.11523h32.75879a6.543,6.543,0,0,1,4.47363,1.67285,5.22623,5.22623,0,0,1-.03711,8.08692,6.51118,6.51118,0,0,1-4.43652,1.70605h-33.59278a21.56339,21.56339,0,0,1-7.01367-1.26269,19.08688,19.08688,0,0,1-5.42187-2.627l-5.6875-4.50488a14.87182,14.87182,0,0,1-4.43653-5.32324,13.71794,13.71794,0,0,1-1.78222-6.27832v-26.27539a14.65932,14.65932,0,0,1,1.93457-6.07422,15.99773,15.99773,0,0,1,4.89062-5.9375l5.30762-3.75293a19.219,19.219,0,0,1,11.60254-3.82227h17.89551a19.47322,19.47322,0,0,1,12.74023,5.04981l4.77637,4.0957Q2018.833,1689.36426,2018.834,1697.62207Zm-51.26171-.88769v8.87207h38.67382v-7.98438a5.84894,5.84894,0,0,0-2.19921-4.91406l-3.71583-2.93457a9.08615,9.08615,0,0,0-5.15625-2.11621h-16A8.69049,8.69049,0,0,0,1973.791,1689.5l-3.71582,2.79883A5.165,5.165,0,0,0,1967.57227,1696.73438Z" transform="translate(-448.13948 -1061.04969)"/>
    <path class="f2655b8f-7447-4e69-b0b3-13e9776e7811" d="M2205.33984,1736.18164v-79.23535a5.0912,5.0912,0,0,1,1.85743-3.958,6.58418,6.58418,0,0,1,4.51269-1.63769,6.509,6.509,0,0,1,4.51172,1.67187,5.266,5.266,0,0,1,1.85742,4.06055v28.93652l10.23731-6.00586q6.97559-3.95654,12.43652-3.958h7.88574a19.45285,19.45285,0,0,1,13.42188,5.01661,16.4917,16.4917,0,0,1,5.83886,12.18164l1.59278,42.92773a4.99418,4.99418,0,0,1-1.82031,4.06055,6.64081,6.64081,0,0,1-4.54981,1.67187,6.22557,6.22557,0,0,1-4.47363-1.74023,5.65856,5.65856,0,0,1-1.89551-3.99219l-1.59277-43.06445a5.51443,5.51443,0,0,0-1.97168-4.02637,6.56923,6.56923,0,0,0-4.54981-1.70605h-7.12793a10.5786,10.5786,0,0,0-5.30761,1.70605l-18.124,10.64648v36.44434a5.26309,5.26309,0,0,1-1.85742,4.06055,6.92492,6.92492,0,0,1-9.02441,0A5.25989,5.25989,0,0,1,2205.33984,1736.18164Z" transform="translate(-448.13948 -1061.04969)"/>
  </g>
</svg>
